<?xml version="1.0" standalone="no"?>
<!DOCTYPE svg PUBLIC "-//W3C//DTD SVG 20010904//EN"
 "http://www.w3.org/TR/2001/REC-SVG-20010904/DTD/svg10.dtd">
<svg version="1.0" xmlns="http://www.w3.org/2000/svg"
 width="188.000000pt" height="219.000000pt" viewBox="0 0 188.000000 219.000000"
 preserveAspectRatio="xMidYMid meet">

<g transform="translate(0.000000,219.000000) scale(0.100000,-0.100000)"
fill="#000000" stroke="none">
<path d="M947 1570 c-18 -14 -27 -32 -29 -58 -3 -36 -4 -37 -53 -44 -36 -5
-53 -4 -60 5 -12 15 -45 10 -45 -6 0 -7 16 -52 35 -101 19 -49 35 -94 35 -99
0 -5 -9 -20 -20 -34 -27 -34 -25 -46 9 -85 l29 -33 -9 -165 c-7 -143 -16 -220
-34 -306 -3 -14 -15 -23 -34 -27 -22 -5 -32 -14 -40 -40 -6 -19 -22 -40 -35
-47 -60 -32 -58 -102 4 -132 31 -16 67 -18 291 -18 264 0 311 6 329 40 20 38
12 77 -24 107 -18 15 -36 40 -40 55 -4 20 -15 30 -38 36 -31 8 -33 12 -45 78
-7 38 -17 150 -23 248 l-11 180 27 21 c31 24 35 66 10 94 -22 24 -21 29 19
132 19 50 35 95 35 99 0 14 -40 18 -48 5 -5 -11 -20 -12 -57 -7 -49 7 -50 8
-53 44 -4 42 -39 78 -77 78 -12 0 -34 -9 -48 -20z m71 -58 c4 -28 -24 -40 -45
-19 -14 13 -14 19 -3 32 18 22 44 15 48 -13z m124 -99 c10 -10 -19 -13 -145
-13 -86 0 -157 2 -157 5 0 26 276 33 302 8z m-12 -73 c0 -6 -7 -26 -14 -45
l-15 -35 -108 0 -109 0 -12 33 c-21 58 -23 57 123 57 86 0 135 -4 135 -10z
m10 -145 c0 -6 -58 -11 -150 -13 -137 -2 -163 2 -143 22 11 11 293 2 293 -9z
m-39 -220 c6 -138 20 -271 35 -331 l6 -24 -140 0 c-78 0 -143 3 -145 8 -3 4 1
43 9 87 7 44 16 150 19 235 4 85 8 161 11 168 3 9 28 12 101 10 l98 -3 6 -150z
m114 -415 c0 -13 -32 -15 -214 -18 -124 -1 -219 2 -224 7 -27 27 9 31 221 29
185 -3 217 -5 217 -18z m43 -66 c18 -5 22 -13 20 -33 l-3 -26 -276 -3 c-226
-2 -278 0 -288 12 -14 17 -5 43 17 49 26 7 504 7 530 1z"/>
</g>
</svg>
