<?xml version="1.0" standalone="no"?>
<!DOCTYPE svg PUBLIC "-//W3C//DTD SVG 20010904//EN"
 "http://www.w3.org/TR/2001/REC-SVG-20010904/DTD/svg10.dtd">
<svg version="1.0" xmlns="http://www.w3.org/2000/svg"
 width="128.000000pt" height="247.000000pt" viewBox="0 0 128.000000 247.000000"
 preserveAspectRatio="xMidYMid meet">

<g transform="translate(0.000000,247.000000) scale(0.100000,-0.100000)"
fill="#000000" stroke="none">
<path d="M550 1773 c-32 -12 -50 -37 -50 -69 0 -31 -3 -33 -47 -43 -36 -7 -52
-7 -63 3 -15 12 -50 11 -50 -2 0 -4 16 -51 37 -104 33 -89 35 -99 21 -115 -31
-35 -31 -59 0 -95 l29 -33 -8 -155 c-7 -147 -24 -288 -38 -307 -3 -4 -19 -15
-36 -23 -17 -9 -31 -25 -33 -37 -2 -12 -19 -34 -38 -48 -30 -23 -35 -32 -32
-62 2 -26 11 -42 31 -57 27 -20 43 -21 265 -24 264 -4 315 1 343 29 27 27 25
82 -3 109 -12 11 -25 20 -29 20 -4 0 -10 14 -14 31 -5 22 -16 35 -40 45 -29
12 -35 21 -45 66 -16 75 -29 227 -30 332 0 82 2 90 25 112 30 28 32 60 5 89
l-21 22 40 102 c39 100 39 101 19 112 -17 9 -23 8 -30 -5 -6 -11 -17 -14 -34
-11 -13 3 -35 7 -49 10 -19 4 -25 12 -25 33 -1 52 -54 92 -100 75z m40 -59
c11 -12 11 -18 -2 -31 -19 -18 -38 -10 -38 16 0 33 20 40 40 15z m116 -107
c15 -15 -7 -18 -142 -15 -119 3 -135 5 -114 15 27 14 242 14 256 0z m-6 -76
c0 -4 -5 -22 -11 -40 l-11 -31 -104 0 -105 0 -15 35 c-7 19 -14 37 -14 40 0 3
58 5 130 5 72 0 130 -4 130 -9z m18 -138 c3 -10 -30 -13 -142 -13 -124 0 -146
2 -146 15 0 13 20 15 142 13 102 -2 143 -6 146 -15z m-46 -208 c6 -132 20
-266 34 -321 l6 -24 -136 0 c-155 0 -143 -9 -126 97 6 35 14 132 19 217 5 85
12 159 16 165 4 8 37 11 93 9 l87 -3 7 -140z m108 -410 c0 -16 -412 -13 -418
3 -3 10 40 12 207 10 132 -2 211 -7 211 -13z m67 -81 c15 -39 -19 -44 -277
-44 -258 0 -289 5 -274 43 6 15 30 17 275 17 241 0 270 -2 276 -16z"/>
</g>
</svg>
