<?xml version="1.0" encoding="iso-8859-1"?>
<!-- Generator: Adobe Illustrator 21.0.0, SVG Export Plug-In . SVG Version: 6.00 Build 0)  -->
<svg xmlns="http://www.w3.org/2000/svg" xmlns:xlink="http://www.w3.org/1999/xlink" version="1.1" id="Capa_1" x="0px" y="0px" viewBox="0 0 512 512" style="enable-background:new 0 0 512 512;" xml:space="preserve" width="512" height="512">
<g>
	<g>
		<path style="fill:#537DA0;" d="M213.847,458.294c-74.034,0-134.265-59.647-134.265-132.964c0-8.284-6.716-15-15-15    s-15,6.716-15,15c0,89.858,73.689,162.964,164.265,162.964c8.284,0,15-6.716,15-15S222.131,458.294,213.847,458.294z"/>
		<path style="fill:#537DA0;" d="M462.42,171.33c0,8.29-6.72,15-15,15c-8.29,0-15-6.71-15-15C432.42,93.4,368.4,30,289.71,30h-67.42    C143.6,30,79.58,93.4,79.58,171.33c0,8.29-6.71,15-15,15c-8.28,0-15-6.71-15-15C49.58,76.86,127.06,0,222.29,0h67.42    C384.94,0,462.42,76.86,462.42,171.33z"/>
	</g>
	<path style="fill:#3D5572;" d="M462.42,171.33c0,8.29-6.72,15-15,15c-8.29,0-15-6.71-15-15C432.42,93.4,368.4,30,289.71,30H256V0   h33.71C384.94,0,462.42,76.86,462.42,171.33z"/>
	<path style="fill:#FFE67B;" d="M423.84,248.33c0,91.81-75.3,166.5-167.84,166.5S88.16,340.14,88.16,248.33S163.46,81.83,256,81.83   S423.84,156.52,423.84,248.33z"/>
	<path style="fill:#FCC454;" d="M423.84,248.33c0,91.81-75.3,166.5-167.84,166.5v-333C348.54,81.83,423.84,156.52,423.84,248.33z"/>
	<g>
		<path style="fill:#69CBF7;" d="M67.596,156.332h-6.028C33.685,156.332,11,179.017,11,206.9v82.861    c0,27.884,22.685,50.568,50.568,50.568h6.028c27.883,0,50.568-22.685,50.568-50.568V206.9    C118.164,179.017,95.479,156.332,67.596,156.332z"/>
		<path style="fill:#4BA0E0;" d="M450.432,156.332h-6.029c-27.883,0-50.568,22.685-50.568,50.568v82.861    c0,27.884,22.685,50.568,50.568,50.568h6.029c27.883,0,50.568-22.685,50.568-50.568V206.9    C501,179.017,478.315,156.332,450.432,156.332z"/>
	</g>
	<g>
		<path style="fill:#537DA0;" d="M204.251,231.417c8.284,0,15-6.716,15-15v-14.458c0-8.284-6.716-15-15-15s-15,6.716-15,15v14.458    C189.251,224.701,195.967,231.417,204.251,231.417z"/>
		<path style="fill:#3D5572;" d="M307.749,186.959c-8.284,0-15,6.716-15,15v14.458c0,8.284,6.716,15,15,15s15-6.716,15-15v-14.458    C322.749,193.675,316.033,186.959,307.749,186.959z"/>
		<path style="fill:#FF8C7D;" d="M322.75,275.01c0,25.06-20.51,45.45-45.72,45.45h-42.06c-25.21,0-45.72-20.39-45.72-45.45    c0-8.29,6.72-15,15-15c8.29,0,15,6.71,15,15c0,8.52,7.05,15.45,15.72,15.45h42.06c8.67,0,15.72-6.93,15.72-15.45    c0-8.29,6.71-15,15-15C316.03,260.01,322.75,266.72,322.75,275.01z"/>
	</g>
	<path style="fill:#69CBF7;" d="M308.61,471.63v3.32c0,20.43-16.62,37.05-37.05,37.05h-35.67c-20.42,0-37.04-16.62-37.04-37.05   v-3.32c0-20.42,16.62-37.04,37.04-37.04h35.67C291.99,434.59,308.61,451.21,308.61,471.63z"/>
	<path style="fill:#69CBF7;" d="M308.61,471.63v3.32c0,20.43-16.62,37.05-37.05,37.05H256v-77.41h15.56   C291.99,434.59,308.61,451.21,308.61,471.63z"/>
	<path style="fill:#4BA0E0;" d="M308.61,471.63v3.32c0,20.43-16.62,37.05-37.05,37.05H256v-77.41h15.56   C291.99,434.59,308.61,451.21,308.61,471.63z"/>
	<path style="fill:#ED5454;" d="M322.75,275.01c0,25.06-20.51,45.45-45.72,45.45H256v-30h21.03c8.67,0,15.72-6.93,15.72-15.45   c0-8.29,6.71-15,15-15C316.03,260.01,322.75,266.72,322.75,275.01z"/>
</g>















</svg>
